# xmcd
#
# Track frame offsets:
#	150
#	34129
#	61186
#	72823
#	92002
#	120058
#	131517
#	151791
#	159815
#	184009
#	203496
#	210696
#	232713
#
# Disc length: 3341 seconds
# Revision: 0
# Processed by: cddbd v1.5.2PL0 Copyright (c) Steve Scherf et al.
# Submitted via: dBpowerAMP V12.0
#
DISCID=910d0b0d
DTITLE=Aiden Varro - Brothers, Lovers, Liars
DYEAR=2011
DGENRE=Blues Roots
TTITLE0=Brothers
TTITLE1=Wall Street Economy
TTITLE2=Bass Fishing
TTITLE3=Love My Baby (Waiky Sing)
TTITLE4=Givin' Me The Blues
TTITLE5=Four Friends
TTITLE6=Whiskey and Wine
TTITLE7=How Are We
TTITLE8=Know Who You Are
TTITLE9=What You Think
TTITLE10=A Road Less Gambled 
TTITLE11=What If
TTITLE12=Brothers (Radio Edit)
EXTD=
EXTT0=
EXTT1=
EXTT2=
EXTT3=
EXTT4=
EXTT5=
EXTT6=
EXTT7=
EXTT8=
EXTT9=
EXTT10=
EXTT11=
EXTT12=
PLAYORDER=
